<svg width="14" height="13" viewBox="0 0 14 13" fill="none" xmlns="http://www.w3.org/2000/svg">
<path d="M13.238 3.20313C13.0407 2.7463 12.7562 2.33232 12.4005 1.98438C12.0445 1.63539 11.6247 1.35806 11.1641 1.16746C10.6864 0.969037 10.1741 0.867472 9.65682 0.868663C8.93116 0.868663 8.22317 1.06737 7.60791 1.44271C7.46071 1.5325 7.32088 1.63112 7.18841 1.73857C7.05594 1.63112 6.9161 1.5325 6.76891 1.44271C6.15365 1.06737 5.44565 0.868663 4.72 0.868663C4.19747 0.868663 3.69113 0.968753 3.21275 1.16746C2.75057 1.35881 2.33401 1.63406 1.97634 1.98438C1.62013 2.33193 1.33558 2.746 1.13882 3.20313C0.934218 3.67856 0.829712 4.18343 0.829712 4.70302C0.829712 5.19316 0.929803 5.70392 1.12851 6.22351C1.29484 6.65772 1.53329 7.10813 1.83798 7.56296C2.32077 8.28273 2.9846 9.03341 3.80888 9.79439C5.17482 11.0558 6.52752 11.9272 6.58492 11.9625L6.93377 12.1863C7.08832 12.2849 7.28703 12.2849 7.44158 12.1863L7.79042 11.9625C7.84783 11.9257 9.19905 11.0558 10.5665 9.79439C11.3907 9.03341 12.0546 8.28273 12.5374 7.56296C12.8421 7.10813 13.082 6.65772 13.2468 6.22351C13.4455 5.70392 13.5456 5.19316 13.5456 4.70302C13.5471 4.18343 13.4426 3.67856 13.238 3.20313ZM7.18841 11.022C7.18841 11.022 1.94837 7.66452 1.94837 4.70302C1.94837 3.20313 3.1892 1.98732 4.72 1.98732C5.79597 1.98732 6.72917 2.58787 7.18841 3.46513C7.64765 2.58787 8.58084 1.98732 9.65682 1.98732C11.1876 1.98732 12.4284 3.20313 12.4284 4.70302C12.4284 7.66452 7.18841 11.022 7.18841 11.022Z" fill="white"/>
</svg>
