<svg width="20" height="20" viewBox="0 0 20 20" fill="none" xmlns="http://www.w3.org/2000/svg">
<path fill-rule="evenodd" clip-rule="evenodd" d="M6.06975 0.888984C7.04725 0.843984 7.35892 0.833984 9.84892 0.833984C12.3389 0.833984 12.6506 0.844818 13.6273 0.888984C14.6039 0.933151 15.2706 1.08898 15.8539 1.31482C16.4648 1.54565 17.0189 1.90648 17.4773 2.37315C17.9439 2.83065 18.3039 3.38398 18.5339 3.99565C18.7606 4.57898 18.9156 5.24565 18.9606 6.22065C19.0056 7.19982 19.0156 7.51149 19.0156 10.0007C19.0156 12.4907 19.0048 12.8023 18.9606 13.7798C18.9164 14.7548 18.7606 15.4215 18.5339 16.0048C18.3039 16.6166 17.9433 17.1708 17.4773 17.629C17.0189 18.0957 16.4648 18.4557 15.8539 18.6857C15.2706 18.9123 14.6039 19.0673 13.6289 19.1123C12.6506 19.1573 12.3389 19.1673 9.84892 19.1673C7.35892 19.1673 7.04725 19.1565 6.06975 19.1123C5.09475 19.0682 4.42808 18.9123 3.84475 18.6857C3.23302 18.4556 2.67877 18.095 2.22058 17.629C1.75423 17.1712 1.39335 16.6172 1.16308 16.0057C0.937251 15.4223 0.782251 14.7557 0.737251 13.7807C0.692251 12.8015 0.682251 12.4898 0.682251 10.0007C0.682251 7.51065 0.693084 7.19899 0.737251 6.22232C0.781418 5.24565 0.937251 4.57898 1.16308 3.99565C1.39369 3.38405 1.75485 2.83008 2.22142 2.37232C2.67895 1.90607 3.23264 1.54519 3.84392 1.31482C4.42725 1.08898 5.09392 0.933984 6.06892 0.888984H6.06975ZM13.5531 2.53898C12.5864 2.49482 12.2964 2.48565 9.84892 2.48565C7.40142 2.48565 7.11142 2.49482 6.14475 2.53898C5.25058 2.57982 4.76558 2.72898 4.44225 2.85482C4.01475 3.02148 3.70892 3.21898 3.38808 3.53982C3.08396 3.83569 2.8499 4.19589 2.70308 4.59398C2.57725 4.91732 2.42808 5.40232 2.38725 6.29648C2.34308 7.26315 2.33392 7.55315 2.33392 10.0007C2.33392 12.4482 2.34308 12.7382 2.38725 13.7048C2.42808 14.599 2.57725 15.084 2.70308 15.4073C2.84975 15.8048 3.08392 16.1657 3.38808 16.4615C3.68392 16.7657 4.04475 16.9998 4.44225 17.1465C4.76558 17.2723 5.25058 17.4215 6.14475 17.4623C7.11142 17.5065 7.40059 17.5157 9.84892 17.5157C12.2973 17.5157 12.5864 17.5065 13.5531 17.4623C14.4473 17.4215 14.9323 17.2723 15.2556 17.1465C15.6831 16.9798 15.9889 16.7823 16.3098 16.4615C16.6139 16.1657 16.8481 15.8048 16.9948 15.4073C17.1206 15.084 17.2698 14.599 17.3106 13.7048C17.3548 12.7382 17.3639 12.4482 17.3639 10.0007C17.3639 7.55315 17.3548 7.26315 17.3106 6.29648C17.2698 5.40232 17.1206 4.91732 16.9948 4.59398C16.8281 4.16648 16.6306 3.86065 16.3098 3.53982C16.0139 3.23571 15.6537 3.00166 15.2556 2.85482C14.9323 2.72898 14.4473 2.57982 13.5531 2.53898V2.53898ZM8.67809 12.8265C9.33197 13.0987 10.0601 13.1354 10.738 12.9304C11.416 12.7254 12.0017 12.2914 12.3953 11.7025C12.7888 11.1136 12.9656 10.4064 12.8956 9.70157C12.8256 8.99677 12.5131 8.33813 12.0114 7.83815C11.6916 7.51855 11.3049 7.27383 10.8792 7.12161C10.4535 6.96939 9.99928 6.91345 9.54933 6.95783C9.09939 7.00221 8.66488 7.1458 8.27709 7.37826C7.8893 7.61072 7.55787 7.92627 7.30667 8.30219C7.05547 8.67812 6.89074 9.10506 6.82435 9.55229C6.75795 9.99951 6.79154 10.4559 6.9227 10.8886C7.05386 11.3213 7.27932 11.7195 7.58285 12.0546C7.88639 12.3897 8.26044 12.6533 8.67809 12.8265ZM6.51725 6.66898C6.95477 6.23146 7.47419 5.8844 8.04583 5.64762C8.61748 5.41083 9.23017 5.28896 9.84892 5.28896C10.4677 5.28896 11.0804 5.41083 11.652 5.64762C12.2237 5.8844 12.7431 6.23146 13.1806 6.66898C13.6181 7.10651 13.9652 7.62592 14.202 8.19757C14.4387 8.76922 14.5606 9.3819 14.5606 10.0007C14.5606 10.6194 14.4387 11.2321 14.202 11.8037C13.9652 12.3754 13.6181 12.8948 13.1806 13.3323C12.297 14.2159 11.0985 14.7123 9.84892 14.7123C8.5993 14.7123 7.40086 14.2159 6.51725 13.3323C5.63364 12.4487 5.13723 11.2503 5.13723 10.0007C5.13723 8.75103 5.63364 7.5526 6.51725 6.66898V6.66898ZM15.6056 5.99065C15.714 5.88838 15.8008 5.76539 15.8608 5.62896C15.9209 5.49254 15.9529 5.34546 15.9551 5.19643C15.9573 5.04739 15.9295 4.89944 15.8735 4.76133C15.8175 4.62321 15.7343 4.49774 15.6289 4.39235C15.5235 4.28696 15.398 4.20378 15.2599 4.14775C15.1218 4.09172 14.9738 4.06396 14.8248 4.06614C14.6758 4.06831 14.5287 4.10036 14.3923 4.1604C14.2559 4.22043 14.1329 4.30723 14.0306 4.41565C13.8317 4.62651 13.7228 4.90659 13.727 5.19643C13.7312 5.48627 13.8482 5.76305 14.0532 5.96802C14.2582 6.17299 14.535 6.29001 14.8248 6.29423C15.1147 6.29846 15.3947 6.18956 15.6056 5.99065V5.99065Z" fill="#757676"/>
</svg>
