<svg width="21" height="20" viewBox="0 0 21 20" fill="none" xmlns="http://www.w3.org/2000/svg">
<path d="M4.50112 0C2.47814 0 0.849243 1.6289 0.849243 3.65188V16.3481C0.849243 18.3711 2.47814 20 4.50112 20H11.3824V12.1813H9.31488V9.36626H11.3824V6.96126C11.3824 5.07176 12.604 3.33688 15.418 3.33688C16.5574 3.33688 17.3999 3.44626 17.3999 3.44626L17.3336 6.07502C17.3336 6.07502 16.4744 6.0669 15.5367 6.0669C14.522 6.0669 14.3592 6.53446 14.3592 7.31066V9.36628H17.4142L17.2811 12.1813H14.3592V20H17.1974C19.2203 20 20.8492 18.3711 20.8492 16.3482V3.6519C20.8492 1.62892 19.2203 2e-05 17.1974 2e-05H4.5011L4.50112 0Z" fill="#757676"/>
</svg>
