<svg fill="none" height="20" viewBox="0 0 21 20" width="21" xmlns="http://www.w3.org/2000/svg"><path d="m10.8492 0c5.5138 0 10 3.64 10 8.115 0 1.79125-.6937 3.4038-2.1437 4.9925-2.0975 2.415-6.7888 5.3563-7.8563 5.8063-1.03746.4375-.91746-.2463-.86996-.5163l.00375-.0225.14251-.8562c.0337-.255.0687-.6513-.0325-.9038-.11251-.2787-.55501-.4237-.88001-.4937-4.80625-.6338-8.363747-3.995-8.363747-8.0063 0-4.475 4.487497-8.115 9.999957-8.115zm-3.72246 9.6075h-1.90625v-3.46c0-.0515-.02037-.10091-.05667-.13745-.0363-.03653-.08558-.05722-.13708-.05755h-.7025c-.0256 0-.05096.00504-.07462.01484s-.04516.02417-.06326.04228c-.01811.0181-.03247.0396-.04227.06326s-.01485.04901-.01485.07462v4.3575c0 .0513.02125.1.055.1338v.0012l.0025.0025.0025.0025c.03625.0349.08471.0542.135.0538h2.8025c.1075 0 .19375-.0875.19375-.195v-.70005c.00017-.02561-.00471-.051-.01436-.07472s-.02387-.04531-.04187-.06353c-.01799-.01823-.03939-.03273-.06299-.04268-.02359-.00995-.04892-.01516-.07453-.01532zm.98875-3.655c-.05171 0-.10131.02055-.13788.05712-.03657.03656-.05712.08616-.05712.13788v4.3575c0 .1075.0875.1938.195.1938h.7025c.1075 0 .19375-.0875.19375-.1938v-4.3575c0-.0515-.02037-.10091-.05667-.13745-.0363-.03653-.08558-.05722-.13708-.05755zm4.82871 0c-.0517 0-.1013.02055-.1378.05712-.0366.03656-.0572.08616-.0572.13788v2.5875l-1.9962-2.695c-.0051-.00656-.0105-.01282-.0163-.01875v-.00125c-.0039-.00438-.0081-.00855-.0125-.0125l-.0037-.00375c-.0043-.0041-.0089-.00786-.0138-.01125h-.0012l-.0063-.005-.0037-.0025c-.002-.00146-.0041-.00271-.0063-.00375l-.01-.00625h-.0025l-.0037-.0025-.0125-.005-.005-.0025c-.0041-.00148-.0083-.00273-.0125-.00375h-.0025l-.0038-.00125-.0112-.0025h-.0075l-.0038-.00125h-.005l-.0025-.00125h-.71746c-.0515 0-.10091.02037-.13744.05667-.03654.0363-.05723.08558-.05756.13708v4.35755c0 .1075.0875.1937.195.1937h.69996c.1088 0 .1963-.0875.1963-.1937v-2.58755l2 2.70005c.0133.0186.0298.0346.0487.0475l.0013.0012.0125.0075.005.0025c.0032.0019.0066.0036.01.005l.0087.0038.0063.0025c.0041.0013.0083.0026.0125.0037h.0037c.0163.0047.0331.0072.05.0075h.7c.1088 0 .1963-.0875.1963-.1937v-4.3588c0-.05172-.0206-.10132-.0571-.13788-.0366-.03657-.0862-.05712-.1379-.05712zm4.7688.89625v-.7c.0002-.02561-.0047-.051-.0144-.07472-.0096-.02372-.0238-.04531-.0418-.06353-.018-.01823-.0394-.03273-.063-.04268s-.0489-.01516-.0746-.01532h-2.8025c-.0504.00006-.0988.01979-.135.055h-.0012l-.0013.0025-.0025.00375c-.0349.03581-.0546.08374-.055.13375v4.3575c0 .0513.0213.1.055.1338l.0025.0037.0025.0025c.0364.0348.0848.054.135.0538h2.8025c.1075 0 .1938-.0875.1938-.195v-.70005c.0002-.02561-.0047-.051-.0144-.07472-.0096-.02372-.0238-.04531-.0418-.06353-.018-.01823-.0394-.03273-.063-.04268s-.0489-.01516-.0746-.01532h-1.9075v-.73625h1.9063c.1075 0 .1937-.0875.1937-.195v-.7c.0002-.02561-.0047-.051-.0143-.07472-.0097-.02372-.0239-.04531-.0419-.06353-.018-.01823-.0394-.03273-.063-.04268s-.0489-.01516-.0745-.01532h-1.9063v-.73625h1.9063c.1075 0 .1937-.0875.1937-.195z" fill="#757676"/></svg>