<svg width="17" height="14" viewBox="0 0 17 14" fill="none" xmlns="http://www.w3.org/2000/svg">
<path d="M16.9742 1.9668C16.3766 2.22462 15.7262 2.41016 15.0563 2.48243C15.7518 2.06922 16.2727 1.41641 16.5211 0.646492C15.8684 1.03475 15.1534 1.30701 14.4078 1.45118C14.0962 1.11803 13.7193 0.852625 13.3006 0.671507C12.8819 0.490389 12.4304 0.397438 11.9742 0.398446C10.1285 0.398446 8.64417 1.89454 8.64417 3.73048C8.64417 3.98829 8.67542 4.2461 8.7262 4.49415C5.96252 4.34962 3.49768 3.0293 1.85901 1.00782C1.56043 1.51781 1.40396 2.0985 1.40588 2.68946C1.40588 3.84571 1.99377 4.86524 2.89026 5.46485C2.36195 5.44405 1.84601 5.29883 1.3844 5.04102V5.08204C1.3844 6.70118 2.52893 8.04298 4.05432 8.35157C3.76791 8.42597 3.47328 8.46402 3.17737 8.46485C2.96057 8.46485 2.75549 8.44337 2.54846 8.41407C2.97034 9.73438 4.19885 10.6934 5.66174 10.7246C4.51721 11.6211 3.08362 12.1484 1.52698 12.1484C1.24768 12.1484 0.989868 12.1387 0.72229 12.1074C2.19885 13.0547 3.95081 13.6016 5.83752 13.6016C11.9625 13.6016 15.3141 8.52735 15.3141 4.12305C15.3141 3.97852 15.3141 3.83399 15.3043 3.68946C15.9528 3.21485 16.5211 2.62696 16.9742 1.9668Z" fill="#757676"/>
</svg>
